<?xml version="1.0" encoding="UTF-8"?>
<!DOCTYPE svg PUBLIC "-//W3C//DTD SVG 1.1//EN" "http://www.w3.org/Graphics/SVG/1.1/DTD/svg11.dtd">
<!-- Creator: CorelDRAW 2020 (64-Bit) -->
<svg xmlns="http://www.w3.org/2000/svg" xml:space="preserve" width="253.9mm" height="161.043mm" version="1.1" style="shape-rendering:geometricPrecision; text-rendering:geometricPrecision; image-rendering:optimizeQuality; fill-rule:evenodd; clip-rule:evenodd"
viewBox="0 0 10192.73 6465.01"
 xmlns:xlink="http://www.w3.org/1999/xlink"
 xmlns:xodm="http://www.corel.com/coreldraw/odm/2003">
 <defs>
  <style type="text/css">
   <![CDATA[
    .fil0 {fill:#005B94;fill-rule:nonzero}
    .fil1 {fill:#D71920;fill-rule:nonzero}
   ]]>
  </style>
 </defs>
 <g id="Layer_x0020_1">
  <metadata id="CorelCorpID_0Corel-Layer"/>
  <g id="_2762442502752">
   <g>
    <rect class="fil0" x="6625.34" y="3916.5" width="321.96" height="902.52"/>
    <rect class="fil0" x="3242.85" y="3916.5" width="321.96" height="902.52"/>
    <polygon class="fil0" points="2525.24,3916.5 2525.24,4263.03 2158.02,4263.03 2158.02,3916.5 1832.19,3916.5 1832.19,4819.02 2158.02,4819.02 2158.02,4456.98 2525.24,4456.98 2525.24,4819.02 2849.78,4819.02 2849.78,3916.5 "/>
    <path class="fil0" d="M7173.58 2357.15l707.27 0 0 -334.89 -733.13 0c-744.77,0 -1011.13,327.13 -1011.13,768.04 0,442.21 232.74,768.04 1011.13,768.04l733.13 0 0 -334.88 -726.67 -0c-363.33,0 -424.1,-186.19 -424.1,-433.16 0,-245.67 63.36,-433.15 443.5,-433.15z"/>
    <g>
     <path class="fil0" d="M9175.15 3263.54l-74.99 0c-363.33,0 -424.1,-226.28 -424.1,-473.24 0,-246.96 43.96,-471.94 424.1,-471.94l74.99 -0c363.33,0 424.1,261.19 424.1,471.94 1.29,212.06 -43.96,473.24 -424.1,473.24l0 0zm-36.21 -1287.83l-2.59 0c-746.06,0 -1053.8,352.99 -1053.8,814.59 0,462.9 274.12,815.88 1053.8,815.88l2.59 0c744.77,0 1053.79,-352.98 1053.79,-815.88 0,-461.6 -274.11,-814.59 -1053.79,-814.59z"/>
    </g>
    <path class="fil0" d="M1036.99 2357.15l707.27 0 0 -334.89 -733.13 0c-744.77,0 -1011.13,327.13 -1011.13,768.04 0,442.21 231.45,768.04 1011.13,768.04l733.13 0 0 -334.88 -727.96 -0c-363.33,0 -424.1,-186.19 -424.1,-433.16 0,-245.67 63.36,-433.15 444.79,-433.15z"/>
    <g>
     <path class="fil0" d="M3038.56 3263.54l-76.29 0c-363.33,0 -424.1,-226.28 -424.1,-473.24 0,-246.96 43.96,-471.94 424.1,-471.94l74.99 -0c363.33,0 424.1,261.19 424.1,471.94 1.29,212.06 -42.67,473.24 -422.81,473.24l0 0zm-36.2 -1287.83l-2.59 0c-746.06,0 -1053.8,352.99 -1053.8,814.59 0,462.9 274.12,815.88 1053.8,815.88l2.59 0c744.76,0 1053.79,-352.98 1053.79,-815.88 -1.29,-461.6 -275.41,-814.59 -1053.79,-814.59z"/>
    </g>
    <path class="fil0" d="M5125.46 2941.58c149.99,0 187.48,47.84 187.48,140.94 0,94.39 -38.79,140.94 -187.48,140.94l-804.25 0 0 334.88 1049.92 0c234.04,0 565.04,-126.71 565.04,-460.31 0,-332.3 -329.72,-457.72 -565.04,-457.72l-345.23 0c-149.99,0 -188.78,-46.55 -188.78,-140.94 0,-94.39 38.79,-142.23 188.78,-142.23l819.77 -0 0 -334.89 -1025.35 0c-234.04,0 -563.75,128.01 -563.75,460.31 0,332.3 331.01,457.72 563.75,457.72l305.15 0 0 1.29z"/>
    <path class="fil0" d="M1015.01 4456.98c87.92,0 109.9,27.15 109.9,82.75 0,55.6 -21.98,82.75 -109.9,82.75l-528.84 0 0 196.54 673.65 0c137.06,0 331.01,-74.99 331.01,-270.24 0,-196.54 -193.95,-268.95 -331.01,-268.95l-259.89 0c-87.92,0 -109.9,-27.15 -109.9,-82.75 0,-55.6 21.98,-82.75 109.9,-82.75l537.89 -0 0 -196.54 -658.14 0c-137.06,0 -331.01,74.99 -331.01,270.24 0,195.24 193.95,268.95 331.01,268.95l235.33 -0z"/>
    <path class="fil0" d="M8361.85 3916.5l0 902.52 -160.33 0c-153.87,0 -231.45,-32.32 -293.51,-126.71 -73.7,-115.08 -232.74,-347.82 -232.74,-347.82l0 475.83 -321.96 0 0 -902.52 160.33 0c146.11,0 212.05,36.2 262.48,115.08 81.46,128.01 265.07,411.17 265.07,411.17l0 -527.54 320.67 -0z"/>
    <g>
     <path class="fil0" d="M5800.41 4354.83l-186.19 0 0 -258.6 186.19 -0c130.59,0 175.85,37.5 175.85,129.3 -1.3,91.8 -41.38,129.3 -175.85,129.3l0 0zm10.34 -438.33l-517.2 0 0 902.52 321.96 0 0 -284.46 196.54 0c386.61,0 502.98,-109.9 502.98,-309.03 -1.29,-199.12 -99.56,-309.03 -504.27,-309.03z"/>
    </g>
    <g>
     <path class="fil0" d="M4463.44 4354.83l-184.9 0 0 -258.6 184.9 -0c131.89,0 175.85,37.5 175.85,129.3 -0,91.8 -40.08,129.3 -175.85,129.3l0 0zm10.34 -438.33l-517.2 0 0 902.52 321.96 0 0 -284.46 196.54 0c387.9,0 504.27,-109.9 504.27,-309.03 -1.29,-199.12 -99.56,-309.03 -505.56,-309.03z"/>
    </g>
   </g>
   <g>
    <path class="fil0" d="M9265.66 4113.04l478.41 0 0 -196.54 -483.58 -0c-438.33,0 -594.78,191.37 -594.78,451.26 0,259.89 137.06,451.26 594.78,451.26l483.58 0 0 -451.26 -320.66 0 0 254.72 -169.38 0c-213.34,0 -249.55,-109.9 -249.55,-254.72 0,-144.81 38.79,-254.72 261.19,-254.72z"/>
    <path class="fil0" d="M6505.09 5118.99c-540.48,685.29 -1369.29,1123.62 -2298.96,1123.62 -929.67,0 -1758.48,-438.33 -2298.96,-1123.62l-443.5 0c612.88,814.59 1613.67,1346.01 2743.75,1346.01 1130.08,0 2129.57,-531.42 2743.75,-1346.01l-446.08 0z"/>
    <path class="fil1" d="M8284.27 5118.99c-540.48,685.29 -1369.29,1123.62 -2298.96,1123.62 -929.67,0 -1758.48,-438.33 -2298.96,-1123.62l-444.79 0c612.88,814.59 1612.37,1346.01 2743.75,1346.01 1130.08,0 2129.57,-531.42 2743.75,-1346.01l-444.79 0z"/>
    <path class="fil1" d="M3449.73 1691.25c514.61,-879.24 1457.21,-1468.85 2535.58,-1468.85 1077.07,0 2019.67,589.61 2534.28,1468.85l435.75 0c-571.51,-1007.25 -1687.37,-1691.25 -2970.03,-1691.25 -1282.66,0 -2398.52,684 -2971.31,1692.54l435.73 0 0 -1.29z"/>
    <path class="fil0" d="M1671.85 1691.25c514.61,-879.24 1457.21,-1468.85 2535.58,-1468.85 1078.37,0 2019.67,589.61 2534.28,1468.85l435.74 0c-571.51,-1007.25 -1687.37,-1691.25 -2970.03,-1691.25 -1282.65,0 -2398.51,684 -2971.31,1692.54l435.74 0 0 -1.29z"/>
   </g>
  </g>
 </g>
</svg>
