<?xml version="1.0" encoding="utf-8"?>
<!-- Generator: Adobe Illustrator 13.0.0, SVG Export Plug-In . SVG Version: 6.00 Build 14948)  -->
<!DOCTYPE svg PUBLIC "-//W3C//DTD SVG 1.0//EN" "http://www.w3.org/TR/2001/REC-SVG-20010904/DTD/svg10.dtd">
<svg version="1.0" id="Layer_1" xmlns="http://www.w3.org/2000/svg" xmlns:xlink="http://www.w3.org/1999/xlink" x="0px" y="0px"
	 width="293.296px" height="60.773px" viewBox="0 0 293.296 60.773" enable-background="new 0 0 293.296 60.773"
	 xml:space="preserve">
<g>
	<path fill="#00A8EC" d="M30.385,0C13.604,0,0,13.602,0,30.387c0,16.778,13.604,30.386,30.385,30.386s30.386-13.608,30.386-30.386
		C60.771,13.602,47.166,0,30.385,0z M30.385,6.853c6.814,0,12.931,2.913,17.229,7.54c-0.22-0.006-0.434-0.017-0.659-0.011
		c-4.528,0.107-7.925,1.691-10.192,4.759c-1.337,1.811-2.022,4.583-2.118,8.236h-8.538V18.15h-6.721v14.307
		c-0.027,2.802-0.439,4.725-1.238,5.759c-1.064,1.414-2.636,2.118-4.714,2.118c-2.181,0.031-3.815-0.68-4.91-2.118
		c-0.41-0.562-0.978-2.247-0.978-2.247c-0.437-1.794-0.695-3.654-0.695-5.582C6.851,17.385,17.39,6.853,30.385,6.853z
		 M30.385,53.914c-7.069,0-13.395-3.133-17.709-8.068c0.354,0.01,0.71,0.025,1.078,0.019c4.532-0.108,7.93-1.696,10.192-4.763
		c1.397-1.889,2.103-4.8,2.143-8.703h8.516v9.695h6.721V27.785c0.03-2.802,0.439-4.719,1.238-5.756
		c1.064-1.412,2.637-2.121,4.714-2.121c2.182-0.025,3.818,0.68,4.911,2.121c0.411,0.563,0.923,2.336,0.923,2.336
		c0.508,1.927,0.805,3.936,0.805,6.021C53.916,43.383,43.382,53.914,30.385,53.914z"/>
	<g>
		<path fill="#3F2272" d="M93.782,33.418h-0.625c-1.532,0-2.444,0.154-2.735,0.461c-0.292,0.309-0.438,1.245-0.438,2.812
			c0,2.047,0.178,3.621,0.536,4.721c0.355,1.098,0.907,1.772,1.655,2.022c0.15,0.051,0.399,0.108,0.748,0.175
			c1.243,0.234,1.866,0.925,1.866,2.073c0,1.115-0.216,1.872-0.649,2.272c-0.431,0.399-1.611,0.6-3.538,0.6
			c-0.515,0-1.322-0.026-2.418-0.076s-1.926-0.076-2.491-0.076c-0.797,0-1.896,0.019-3.29,0.052c-1.395,0.034-2.393,0.05-2.99,0.05
			h-0.749c-1.824,0-2.971-0.161-3.436-0.485c-0.465-0.324-0.698-0.929-0.698-1.812c0-1.266,0.423-2.073,1.271-2.424
			c0.365-0.149,0.654-0.298,0.871-0.448c0.415-0.283,0.706-1.103,0.872-2.461c0.165-1.355,0.249-3.809,0.249-7.355v-2.549
			c0-4.476-0.063-7.408-0.187-8.798c-0.125-1.389-0.336-2.225-0.635-2.508c-0.166-0.166-0.465-0.349-0.896-0.549
			c-1.128-0.564-1.692-1.406-1.692-2.52c0-0.932,0.19-1.564,0.573-1.897c0.382-0.332,1.396-0.499,3.043-0.499
			c0.713,0,1.772,0.018,3.177,0.05c1.404,0.034,2.457,0.051,3.155,0.051c1.014,0,2.195-0.017,3.542-0.051
			c1.347-0.032,2.176-0.05,2.493-0.05c1.28,0,2.17,0.158,2.667,0.475c0.5,0.315,0.749,0.872,0.749,1.671
			c0,1.114-0.559,1.888-1.674,2.318c-0.132,0.051-0.241,0.093-0.325,0.126c-0.717,0.315-1.203,0.856-1.461,1.621
			c-0.258,0.766-0.388,2.253-0.388,4.465c0,1.113,0.267,1.783,0.798,2.008s2.052,0.336,4.561,0.336h2.848
			c1.734,0,2.789-0.146,3.165-0.436c0.375-0.291,0.562-1.136,0.562-2.532v-1.172c0-0.966-0.087-1.8-0.262-2.507
			c-0.174-0.706-0.403-1.159-0.686-1.359c-0.1-0.066-0.232-0.158-0.399-0.274c-1.032-0.716-1.546-1.497-1.546-2.345
			c0-0.947,0.203-1.592,0.61-1.933c0.409-0.341,1.153-0.512,2.233-0.512c0.2,0,1.045,0.018,2.533,0.05
			c1.487,0.034,2.88,0.05,4.178,0.05c1.046,0,2.173-0.008,3.379-0.023c1.206-0.018,1.866-0.026,1.982-0.026
			c1.464,0,2.433,0.192,2.906,0.575s0.712,1.056,0.712,2.021c0,0.965-0.5,1.723-1.498,2.272c-0.216,0.116-0.341,0.191-0.375,0.225
			c-0.549,0.483-0.927,1.507-1.135,3.071c-0.208,1.564-0.312,4.876-0.312,9.936c0,3.962,0.113,6.666,0.336,8.114
			c0.226,1.448,0.62,2.405,1.187,2.87c0.199,0.15,0.473,0.301,0.823,0.451c0.882,0.364,1.322,1.156,1.322,2.371
			c0,0.866-0.187,1.473-0.562,1.821c-0.375,0.351-1.117,0.525-2.231,0.525c-0.084,0-0.342,0-0.775,0
			c-2.727-0.032-5.538-0.051-8.431-0.051h-0.449c-0.533,0-1.198,0.009-1.996,0.026c-0.799,0.016-1.332,0.024-1.598,0.024
			c-0.964,0-1.687-0.22-2.17-0.662c-0.483-0.441-0.723-1.103-0.723-1.986c0-0.865,0.373-1.572,1.119-2.121
			c0.265-0.2,0.447-0.366,0.547-0.501c0.313-0.366,0.546-0.952,0.694-1.76c0.15-0.807,0.224-1.894,0.224-3.26
			c0-0.298,0.008-0.749,0.024-1.348c0.018-0.599,0.026-1.05,0.026-1.349c0-0.898-0.276-1.466-0.827-1.698
			c-0.55-0.233-2.12-0.35-4.706-0.35H93.782z"/>
		<path fill="#3F2272" d="M126.58,37.647l8.686-20.519c0.631-1.513,1.272-2.449,1.921-2.808c0.647-0.356,1.795-0.536,3.442-0.536
			c1.829,0,3.03,0.113,3.605,0.338c0.573,0.224,1.125,0.935,1.658,2.132l9.803,21.367c0.1,0.216,0.24,0.517,0.424,0.898
			c1.297,2.896,2.453,4.584,3.466,5.066c0.815,0.383,1.322,0.729,1.522,1.035c0.199,0.309,0.299,0.754,0.299,1.335
			c0,1.082-0.174,1.778-0.524,2.085c-0.349,0.308-1.072,0.461-2.17,0.461h-0.473c-0.749,0-1.913-0.016-3.492-0.05
			c-1.581-0.032-2.795-0.05-3.643-0.05c-1.214,0-2.607,0.025-4.178,0.076c-1.572,0.05-2.531,0.074-2.88,0.074
			c-1.166,0-1.95-0.162-2.357-0.486c-0.409-0.324-0.612-0.961-0.612-1.908c0-0.649,0.103-1.144,0.312-1.485
			c0.208-0.341,0.578-0.677,1.111-1.009c0.066-0.051,0.174-0.125,0.323-0.225c0.916-0.615,1.373-1.206,1.373-1.771
			c0-0.665-0.233-1.14-0.698-1.422c-0.466-0.283-1.29-0.425-2.47-0.425c-0.881,0-1.779-0.017-2.693-0.05c-0.2,0-0.326,0-0.375,0
			h-1.573c-2.362,0-3.855,0.158-4.479,0.475c-0.625,0.316-0.937,0.89-0.937,1.721c0,0.865,0.499,1.463,1.499,1.796
			c0.232,0.084,0.415,0.149,0.549,0.2c0.565,0.2,0.96,0.44,1.185,0.723s0.337,0.691,0.337,1.223c0,0.981-0.216,1.659-0.649,2.034
			c-0.433,0.373-1.19,0.56-2.271,0.56c-0.583,0-1.39-0.016-2.422-0.05c-1.032-0.032-1.773-0.05-2.222-0.05
			c-0.665,0-1.461,0.025-2.385,0.076c-0.923,0.05-1.525,0.074-1.81,0.074c-0.865,0-1.473-0.15-1.821-0.449
			c-0.35-0.3-0.525-0.865-0.525-1.696c0-0.533,0.076-0.979,0.225-1.336c0.15-0.358,0.367-0.611,0.649-0.762
			c0.034-0.017,0.1-0.05,0.2-0.101c1.032-0.482,1.763-0.905,2.197-1.271c0.666-0.567,1.589-2.246,2.771-5.042L126.58,37.647z
			 M138.135,25.713c-0.167,0-0.337,0.096-0.512,0.286c-0.174,0.192-0.344,0.472-0.512,0.836c-0.748,1.431-1.354,2.795-1.821,4.093
			c-0.465,1.297-0.697,2.178-0.697,2.645c0,0.267,0.137,0.454,0.412,0.563c0.274,0.107,0.853,0.161,1.734,0.161h1.896
			c0.932,0,1.545-0.054,1.845-0.161c0.3-0.108,0.449-0.313,0.449-0.612c0-0.365-0.124-1.072-0.375-2.121
			c-0.249-1.048-0.581-2.179-0.998-3.395c-0.315-0.913-0.573-1.525-0.772-1.832C138.584,25.866,138.368,25.713,138.135,25.713z"/>
		<path fill="#3F2272" d="M174.428,15.821l15.759,13.606c0.034,0.034,0.083,0.084,0.15,0.15c0.533,0.482,0.89,0.724,1.074,0.724
			c0.249,0,0.423-0.088,0.523-0.262c0.1-0.175,0.15-0.562,0.15-1.161v-0.475c0-1.614-0.071-3.092-0.211-4.432
			c-0.143-1.34-0.296-2.192-0.462-2.559c-0.351-0.815-1.098-1.415-2.246-1.797c-0.082-0.034-0.134-0.051-0.15-0.051
			c-0.2-0.066-0.475-0.158-0.823-0.274c-1.296-0.4-1.946-1.231-1.946-2.497c0-0.982,0.199-1.66,0.599-2.034
			c0.399-0.375,1.156-0.563,2.27-0.563c0.316,0,1.011,0.018,2.083,0.05c1.074,0.034,1.976,0.051,2.708,0.051
			c0.499,0,1.256-0.009,2.272-0.024c1.014-0.018,1.795-0.026,2.344-0.026c1.23,0,2.05,0.155,2.457,0.462
			c0.408,0.309,0.612,0.887,0.612,1.736c0,1.215-0.558,2.097-1.673,2.646c-0.599,0.301-1.016,0.591-1.248,0.874
			c-0.316,0.382-0.541,0.875-0.674,1.474c-0.134,0.599-0.199,1.631-0.199,3.095v1.425l0.05,14.107v0.3
			c0,0.101,0.008,0.583,0.025,1.448c0.017,0.865,0.024,1.681,0.024,2.446c0,1.965-0.166,3.275-0.499,3.933
			c-0.333,0.657-0.932,0.986-1.795,0.986c-0.934,0-2.819-1.216-5.664-3.646l-0.174-0.15l-13.487-11.611
			c-0.333-0.284-0.636-0.509-0.913-0.675c-0.274-0.166-0.487-0.25-0.638-0.25c-0.266,0-0.449,0.146-0.549,0.438
			c-0.1,0.292-0.15,1.053-0.15,2.284c0,2.614,0.116,4.384,0.35,5.308c0.232,0.925,0.657,1.61,1.274,2.06
			c0.383,0.284,1.058,0.524,2.024,0.725c0.417,0.101,0.741,0.183,0.976,0.251c0.633,0.198,1.044,0.448,1.236,0.749
			c0.192,0.299,0.288,0.848,0.288,1.646c0,0.817-0.179,1.403-0.536,1.762c-0.357,0.356-0.935,0.536-1.732,0.536
			c-0.1,0-0.35-0.009-0.749-0.024c-1.845-0.118-3.615-0.176-5.31-0.176c-1.048,0-2.186,0.025-3.417,0.075
			c-1.23,0.051-1.929,0.074-2.094,0.074c-1.082,0-1.795-0.145-2.146-0.436c-0.349-0.292-0.523-0.862-0.523-1.711
			c0-1.164,0.542-2.026,1.629-2.584c1.085-0.559,1.744-1.012,1.977-1.36c0.347-0.483,0.604-1.67,0.77-3.559
			c0.166-1.889,0.249-4.532,0.249-7.928c0-3.878-0.083-6.462-0.249-7.752c-0.167-1.29-0.457-2.194-0.87-2.71
			c-0.249-0.3-0.887-0.69-1.915-1.174c-1.027-0.482-1.54-1.207-1.54-2.173c0-1.031,0.182-1.784,0.547-2.259
			c0.365-0.475,0.946-0.712,1.744-0.712c0.182,0,0.592,0.018,1.232,0.05c0.639,0.034,1.183,0.051,1.632,0.051
			c0.582,0,1.184-0.017,1.805-0.051c0.623-0.032,0.959-0.05,1.009-0.05c0.333,0,0.681,0.101,1.046,0.301
			C173.099,14.699,173.664,15.14,174.428,15.821z"/>
		<path fill="#3F2272" d="M207.611,60.102c-2.328,0-4.018-0.366-5.066-1.098c-1.048-0.732-1.573-1.913-1.573-3.544
			c0-1.797,0.437-3.431,1.31-4.903c0.874-1.472,1.75-2.208,2.632-2.208c0.781,0,1.329,0.633,1.646,1.9
			c0.016,0.065,0.025,0.116,0.025,0.149c0.232,0.899,0.481,1.559,0.748,1.975c0.266,0.417,0.582,0.625,0.947,0.625
			c0.766,0,1.307-1.137,1.621-3.408c0.316-2.273,0.475-6.49,0.475-12.649v-7.765c0-3.876-0.121-6.464-0.363-7.762
			c-0.242-1.299-0.688-2.123-1.339-2.473c-0.116-0.065-0.325-0.158-0.626-0.274c-1.117-0.416-1.676-1.189-1.676-2.321
			c0-0.799,0.248-1.356,0.749-1.673c0.499-0.316,1.398-0.475,2.696-0.475c0.232,0,1.073,0.018,2.521,0.05
			c1.449,0.034,2.787,0.051,4.021,0.051c0.414,0,1.268-0.017,2.557-0.051c1.291-0.032,2.361-0.05,3.209-0.05
			c1.664,0,2.684,0.171,3.059,0.512c0.375,0.343,0.563,1.037,0.563,2.085c0,0.965-0.557,1.738-1.666,2.321
			c-0.414,0.217-0.705,0.4-0.871,0.549c-0.281,0.267-0.479,0.962-0.596,2.084c-0.115,1.124-0.174,3.442-0.174,6.954v2.146
			c0,1.749,0.016,3.836,0.049,6.266c0.033,2.431,0.051,3.993,0.051,4.692c0,5.625-1.35,10.079-4.045,13.366
			C215.798,58.458,212.169,60.102,207.611,60.102z"/>
		<path fill="#3F2272" d="M240.937,48.401c-2.813,0.034-4.924,0.051-6.338,0.051c-1.098,0-1.855-0.17-2.27-0.513
			c-0.418-0.34-0.623-0.918-0.623-1.735c0-1.264,0.422-2.071,1.268-2.422c0.365-0.148,0.656-0.298,0.871-0.448
			c0.414-0.283,0.705-1.103,0.871-2.459s0.25-3.807,0.25-7.353v-2.546c0-4.478-0.064-7.411-0.188-8.801
			c-0.125-1.391-0.336-2.227-0.635-2.509c-0.166-0.167-0.465-0.351-0.896-0.551c-1.129-0.565-1.691-1.406-1.691-2.521
			c0-0.915,0.182-1.543,0.549-1.886c0.365-0.341,1.064-0.512,2.098-0.512c0.115,0,0.922,0.018,2.42,0.05
			c1.5,0.034,2.939,0.051,4.322,0.051c1.396,0,2.838-0.017,4.318-0.051c1.481-0.032,2.28-0.05,2.397-0.05
			c1.064,0,1.779,0.185,2.148,0.549c0.365,0.367,0.549,1.05,0.549,2.048c0,0.965-0.568,1.74-1.703,2.321
			c-0.451,0.217-0.752,0.4-0.902,0.551c-0.316,0.282-0.533,1.118-0.65,2.509c-0.117,1.39-0.176,4.323-0.176,8.801v2.546
			c0,3.527,0.082,5.971,0.25,7.326c0.168,1.358,0.469,2.194,0.902,2.511c0.199,0.148,0.484,0.291,0.852,0.423
			c0.852,0.335,1.277,1.142,1.277,2.422c0,0.85-0.209,1.438-0.627,1.762c-0.416,0.324-1.4,0.486-2.953,0.486h-0.975
			c-0.332,0-1.02-0.009-2.059-0.024C242.554,48.41,241.669,48.401,240.937,48.401z"/>
		<path fill="#3F2272" d="M266.134,15.821l15.76,13.606c0.033,0.034,0.084,0.084,0.15,0.15c0.531,0.482,0.891,0.724,1.074,0.724
			c0.248,0,0.424-0.088,0.523-0.262c0.1-0.175,0.148-0.562,0.148-1.161v-0.475c0-1.614-0.07-3.092-0.211-4.432
			s-0.297-2.192-0.461-2.559c-0.352-0.815-1.098-1.415-2.248-1.797c-0.08-0.034-0.131-0.051-0.148-0.051
			c-0.199-0.066-0.475-0.158-0.822-0.274c-1.299-0.4-1.947-1.231-1.947-2.497c0-0.982,0.199-1.66,0.6-2.034
			c0.398-0.375,1.156-0.563,2.271-0.563c0.316,0,1.01,0.018,2.082,0.05c1.072,0.034,1.977,0.051,2.705,0.051
			c0.502,0,1.256-0.009,2.273-0.024c1.014-0.018,1.795-0.026,2.344-0.026c1.23,0,2.051,0.155,2.459,0.462
			c0.406,0.309,0.609,0.887,0.609,1.736c0,1.215-0.555,2.097-1.672,2.646c-0.598,0.301-1.014,0.591-1.246,0.874
			c-0.316,0.382-0.543,0.875-0.676,1.474s-0.199,1.631-0.199,3.095v1.425l0.051,14.107v0.3c0,0.101,0.006,0.583,0.025,1.448
			c0.016,0.865,0.023,1.681,0.023,2.446c0,1.965-0.166,3.275-0.498,3.933s-0.934,0.986-1.795,0.986
			c-0.934,0-2.818-1.216-5.664-3.646l-0.174-0.15l-13.488-11.611c-0.332-0.284-0.637-0.509-0.912-0.675s-0.488-0.25-0.639-0.25
			c-0.266,0-0.449,0.146-0.549,0.438c-0.1,0.292-0.15,1.053-0.15,2.284c0,2.614,0.117,4.384,0.352,5.308
			c0.232,0.925,0.656,1.61,1.273,2.06c0.383,0.284,1.057,0.524,2.025,0.725c0.416,0.101,0.74,0.183,0.975,0.251
			c0.633,0.198,1.045,0.448,1.236,0.749c0.191,0.299,0.287,0.848,0.287,1.646c0,0.817-0.18,1.403-0.535,1.762
			c-0.357,0.356-0.936,0.536-1.732,0.536c-0.102,0-0.352-0.009-0.75-0.024c-1.846-0.118-3.615-0.176-5.311-0.176
			c-1.047,0-2.186,0.025-3.416,0.075c-1.23,0.051-1.93,0.074-2.094,0.074c-1.082,0-1.795-0.145-2.145-0.436
			c-0.35-0.292-0.523-0.862-0.523-1.711c0-1.164,0.541-2.026,1.629-2.584c1.084-0.559,1.744-1.012,1.977-1.36
			c0.346-0.483,0.604-1.67,0.77-3.559S260,34.373,260,30.978c0-3.878-0.082-6.462-0.248-7.752s-0.457-2.194-0.871-2.71
			c-0.248-0.3-0.885-0.69-1.914-1.174c-1.027-0.482-1.541-1.207-1.541-2.173c0-1.031,0.184-1.784,0.549-2.259
			c0.363-0.475,0.945-0.712,1.742-0.712c0.184,0,0.594,0.018,1.232,0.05c0.639,0.034,1.184,0.051,1.633,0.051
			c0.58,0,1.184-0.017,1.805-0.051c0.623-0.032,0.959-0.05,1.01-0.05c0.332,0,0.68,0.101,1.045,0.301S265.371,15.14,266.134,15.821z
			"/>
	</g>
</g>
</svg>
