<?xml version="1.0" encoding="UTF-8" standalone="no"?>
<!-- Created with Inkscape (http://www.inkscape.org/) -->

<svg
   xmlns:dc="http://purl.org/dc/elements/1.1/"
   xmlns:cc="http://creativecommons.org/ns#"
   xmlns:rdf="http://www.w3.org/1999/02/22-rdf-syntax-ns#"
   xmlns:svg="http://www.w3.org/2000/svg"
   xmlns="http://www.w3.org/2000/svg"
   xmlns:sodipodi="http://sodipodi.sourceforge.net/DTD/sodipodi-0.dtd"
   xmlns:inkscape="http://www.inkscape.org/namespaces/inkscape"
   id="svg2876"
   version="1.1"
   inkscape:version="0.47 r22583"
   width="250"
   height="50"
   xml:space="preserve"
   sodipodi:docname="TUI_GB09_en_gesamt.svg"><metadata
     id="metadata2882"><rdf:RDF><cc:Work
         rdf:about=""><dc:format>image/svg+xml</dc:format><dc:type
           rdf:resource="http://purl.org/dc/dcmitype/StillImage" /><dc:title></dc:title></cc:Work></rdf:RDF></metadata><defs
     id="defs2880"><inkscape:perspective
       sodipodi:type="inkscape:persp3d"
       inkscape:vp_x="0 : 0.5 : 1"
       inkscape:vp_y="0 : 1000 : 0"
       inkscape:vp_z="1 : 0.5 : 1"
       inkscape:persp3d-origin="0.5 : 0.33333333 : 1"
       id="perspective2884" /><clipPath
       clipPathUnits="userSpaceOnUse"
       id="clipPath2892"><path
         d="m 0,0 595.275,0 0,841.89 L 0,841.89 0,0 z"
         id="path2894" /></clipPath><clipPath
       clipPathUnits="userSpaceOnUse"
       id="clipPath2904"><path
         d="m 0,0 595.276,0 0,841.89 L 0,841.89 0,0 z"
         id="path2906" /></clipPath><clipPath
       clipPathUnits="userSpaceOnUse"
       id="clipPath3024"><path
         d="m 75.37,680.613 94.08,0 0,37.76 -94.08,0 0,-37.76 z"
         id="path3026" /></clipPath><clipPath
       clipPathUnits="userSpaceOnUse"
       id="clipPath3130"><path
         d="m 72.065,625.37 47.163,0 0,44.763 -47.163,0 0,-44.763 z"
         id="path3132" /></clipPath><clipPath
       clipPathUnits="userSpaceOnUse"
       id="clipPath3208"><path
         d="m 76.093,573.681 99.962,0 0,45.591 -99.962,0 0,-45.591 z"
         id="path3210" /></clipPath><clipPath
       clipPathUnits="userSpaceOnUse"
       id="clipPath3726"><path
         d="m 75.568,481.947 117.881,0 0,22.414 -117.881,0 0,-22.414 z"
         id="path3728" /></clipPath><clipPath
       clipPathUnits="userSpaceOnUse"
       id="clipPath3822"><path
         d="m 76.109,292.645 94.683,0 0,21.192 -94.683,0 0,-21.192 z"
         id="path3824" /></clipPath><clipPath
       clipPathUnits="userSpaceOnUse"
       id="clipPath3882"><path
         d="m 75.88,199.346 99.101,0 0,15.087 -99.101,0 0,-15.087 z"
         id="path3884" /></clipPath></defs><sodipodi:namedview
     pagecolor="#ffffff"
     bordercolor="#666666"
     borderopacity="1"
     objecttolerance="10"
     gridtolerance="10"
     guidetolerance="10"
     inkscape:pageopacity="0"
     inkscape:pageshadow="2"
     inkscape:window-width="1280"
     inkscape:window-height="949"
     id="namedview2878"
     showgrid="false"
     inkscape:zoom="1"
     inkscape:cx="277.19724"
     inkscape:cy="156.99872"
     inkscape:window-x="0"
     inkscape:window-y="24"
     inkscape:window-maximized="1"
     inkscape:current-layer="g2886" /><g
     id="g2886"
     inkscape:groupmode="layer"
     inkscape:label="TUI_GB09_en_gesamt"
     transform="matrix(1.25,0,0,-1.25,-94.85025,299.1825)"><g
       id="g4599"
       transform="translate(0.8,-2.4)"><g
         transform="matrix(1.7830427,0,0,1.7830427,137.15385,212.39417)"
         id="g3874"><path
           id="path3876"
           style="fill:#0b0d0a;fill-opacity:1;fill-rule:nonzero;stroke:none"
           d="m 0,0 2.046,0 0,4.015 3.768,0 0,-4.015 2.047,0 0,9.308 -2.047,0 0,-3.572 -3.768,0 0,3.572 L 0,9.308 0,0 z" /></g><g
         transform="matrix(1.7830427,0,0,1.7830427,-49.817436,-147.60304)"
         id="g3878"><g
           clip-path="url(#clipPath3882)"
           id="g3880"><g
             transform="translate(117.6912,204.5077)"
             id="g3886"><path
               id="path3888"
               style="fill:#0b0d0a;fill-opacity:1;fill-rule:evenodd;stroke:none"
               d="m 0,0 c 0,-0.404 -0.052,-1.551 -1.499,-1.551 -0.6,0 -1.134,0.169 -1.134,0.86 0,0.678 0.521,0.874 1.094,0.991 C -0.965,0.405 -0.313,0.417 0,0.691 L 0,0 z M -2.425,2.059 C -2.36,2.789 -1.904,3.077 -1.2,3.077 -0.547,3.077 0,2.959 0,2.164 0,1.408 -1.056,1.447 -2.19,1.278 -3.337,1.121 -4.485,0.756 -4.485,-0.769 c 0,-1.382 1.017,-2.021 2.295,-2.021 0.821,0 1.681,0.222 2.268,0.834 0.013,-0.221 0.065,-0.443 0.131,-0.651 l 1.877,0 c -0.17,0.273 -0.235,0.886 -0.235,1.499 l 0,3.507 c 0,1.616 -1.617,1.916 -2.959,1.916 -1.512,0 -3.064,-0.522 -3.168,-2.256 l 1.851,0" /></g><g
             transform="translate(120.1447,199.5277)"
             id="g3890"><path
               id="path3892"
               style="fill:#0b0d0a;fill-opacity:1;fill-rule:evenodd;stroke:none"
               d="m 0,0 1.851,0 0,3.207 0.026,0 C 2.32,2.542 3.089,2.19 3.898,2.19 c 1.968,0 2.959,1.682 2.959,3.481 0,1.916 -0.952,3.624 -3.063,3.624 -0.835,0 -1.565,-0.326 -2.008,-1.044 l -0.026,0 0,0.861 L 0,9.112 0,0 z m 3.402,3.585 c -1.199,0 -1.616,1.043 -1.616,2.138 0,1.094 0.391,2.177 1.603,2.177 1.187,0 1.617,-1.108 1.617,-2.177 0,-1.095 -0.391,-2.138 -1.604,-2.138" /></g><g
             transform="translate(131.7336,204.5077)"
             id="g3894"><path
               id="path3896"
               style="fill:#0b0d0a;fill-opacity:1;fill-rule:evenodd;stroke:none"
               d="m 0,0 c 0,-0.404 -0.052,-1.551 -1.499,-1.551 -0.6,0 -1.134,0.169 -1.134,0.86 0,0.678 0.521,0.874 1.095,0.991 C -0.965,0.405 -0.313,0.417 0,0.691 L 0,0 z m -2.425,2.059 c 0.066,0.73 0.522,1.018 1.226,1.018 C -0.547,3.077 0,2.959 0,2.164 0,1.408 -1.056,1.447 -2.19,1.278 -3.337,1.121 -4.484,0.756 -4.484,-0.769 c 0,-1.382 1.017,-2.021 2.294,-2.021 0.822,0 1.681,0.222 2.268,0.834 0.013,-0.221 0.066,-0.443 0.131,-0.651 l 1.877,0 c -0.17,0.273 -0.235,0.886 -0.235,1.499 l 0,3.507 c 0,1.616 -1.616,1.916 -2.959,1.916 -1.512,0 -3.064,-0.522 -3.168,-2.256 l 1.851,0" /></g><g
             transform="translate(140.927,208.6402)"
             id="g3898"><path
               id="path3900"
               style="fill:#0b0d0a;fill-opacity:1;fill-rule:evenodd;stroke:none"
               d="m 0,0 -1.76,0 0,-0.9 -0.026,0 c -0.443,0.783 -1.121,1.083 -2.008,1.083 -1.89,0 -2.894,-1.591 -2.894,-3.337 0,-1.852 0.861,-3.39 2.881,-3.39 0.809,0 1.617,0.339 2.021,1.043 l 0.026,0 0,-0.887 c 0.013,-0.965 -0.456,-1.668 -1.486,-1.668 -0.652,0 -1.213,0.234 -1.382,0.925 l -1.838,0 c 0.091,-1.538 1.642,-2.164 2.972,-2.164 3.102,0 3.494,1.877 3.494,2.985 L 0,0 z m -3.338,-5.15 c -1.134,0 -1.499,1.056 -1.499,2.021 0,1.004 0.457,1.916 1.499,1.916 1.2,0 1.578,-0.977 1.578,-2.072 0,-0.965 -0.522,-1.865 -1.578,-1.865" /></g><path
             id="path3902"
             style="fill:#0b0d0a;fill-opacity:1;fill-rule:nonzero;stroke:none"
             d="m 141.435,206.254 3.924,0 0,-1.59 -3.924,0 0,1.59 z" /><g
             transform="translate(145.8575,201.9005)"
             id="g3904"><path
               id="path3906"
               style="fill:#0b0d0a;fill-opacity:1;fill-rule:evenodd;stroke:none"
               d="m 0,0 6.583,0 0,1.721 -4.537,0 0,7.587 L 0,9.308 0,0 z" /></g><path
             id="path3908"
             style="fill:#0b0d0a;fill-opacity:1;fill-rule:nonzero;stroke:none"
             d="m 152.872,211.208 1.851,0 0,-9.308 -1.851,0 0,9.308 z" /><g
             transform="translate(155.1412,205.2638)"
             id="g3910"><path
               id="path3912"
               style="fill:#0b0d0a;fill-opacity:1;fill-rule:evenodd;stroke:none"
               d="m 0,0 c 0,-2.138 1.369,-3.546 3.481,-3.546 2.125,0 3.494,1.408 3.494,3.546 0,2.151 -1.369,3.559 -3.494,3.559 C 1.369,3.559 0,2.151 0,0 m 1.852,0 c 0,1.081 0.378,2.164 1.629,2.164 1.265,0 1.643,-1.083 1.643,-2.164 0,-1.069 -0.378,-2.151 -1.643,-2.151 -1.251,0 -1.629,1.082 -1.629,2.151" /></g><g
             transform="translate(168.6211,208.6402)"
             id="g3914"><path
               id="path3916"
               style="fill:#0b0d0a;fill-opacity:1;fill-rule:evenodd;stroke:none"
               d="m 0,0 -1.917,0 -1.473,-4.614 -0.026,0 L -4.941,0 -6.922,0 -4.55,-6.323 c 0.209,-0.534 0,-1.199 -0.639,-1.264 -0.365,-0.013 -0.73,0.039 -1.082,0.065 l 0,-1.525 c 0.378,-0.04 0.756,-0.065 1.135,-0.065 1.277,0 1.916,0.443 2.32,1.525 L 0,0" /></g><g
             transform="translate(173.2208,201.9005)"
             id="g3918"><path
               id="path3920"
               style="fill:#0b0d0a;fill-opacity:1;fill-rule:evenodd;stroke:none"
               d="m 0,0 1.76,0 0,9.308 -1.851,0 0,-3.39 -0.026,0 0.013,0 c -0.43,0.665 -1.213,1.004 -2.008,1.004 -1.981,0 -2.985,-1.682 -2.985,-3.494 0,-1.864 0.991,-3.611 3.024,-3.611 0.861,0 1.617,0.313 2.047,1.044 L 0,0.861 0,0 z m -0.026,3.389 c 0,-1.107 -0.365,-2.177 -1.59,-2.177 -1.148,0 -1.63,1.108 -1.63,2.164 0,1.108 0.417,2.151 1.63,2.151 1.199,0 1.59,-1.043 1.59,-2.138" /></g><g
             transform="translate(82.1522,214.4323)"
             id="g3922"><path
               id="path3924"
               style="fill:#023573;fill-opacity:1;fill-rule:evenodd;stroke:none"
               d="m 0,0 6.564,0 -4.227,-6.935 1.305,0 L 7.83,0 l 6.778,0 -4.188,-6.798 4.442,0 -1.831,-3.37 -4.695,0 3.662,-4.694 -6.778,0 -3.389,4.694 -1.305,0 3.369,-4.694 -6.505,0 -3.662,4.948 L 0,0 z" /></g></g></g></g></g></svg>