<?xml version="1.0" encoding="UTF-8"?>
<!DOCTYPE svg PUBLIC "-//W3C//DTD SVG 1.1//EN" "http://www.w3.org/Graphics/SVG/1.1/DTD/svg11.dtd">
<!-- Creator: CorelDRAW 2020 (64-Bit) -->
<svg xmlns="http://www.w3.org/2000/svg" xml:space="preserve" width="76.3044mm" height="19.2236mm" version="1.1" style="shape-rendering:geometricPrecision; text-rendering:geometricPrecision; image-rendering:optimizeQuality; fill-rule:evenodd; clip-rule:evenodd"
viewBox="0 0 104.22 26.26"
 xmlns:xlink="http://www.w3.org/1999/xlink"
 xmlns:xodm="http://www.corel.com/coreldraw/odm/2003">
 <defs>
  <style type="text/css">
   <![CDATA[
    .str1 {stroke:#FEFEFE;stroke-width:0.12;stroke-miterlimit:10}
    .str0 {stroke:#2A4799;stroke-width:0.48;stroke-miterlimit:10}
    .fil0 {fill:none;fill-rule:nonzero}
    .fil2 {fill:#FEFEFE;fill-rule:nonzero}
    .fil3 {fill:#332C2B;fill-rule:nonzero}
    .fil1 {fill:#1A4B9A;fill-rule:nonzero}
   ]]>
  </style>
 </defs>
 <g id="Layer_x0020_1">
  <metadata id="CorelCorpID_0Corel-Layer"/>
  <g id="_2762461242640">
   <polygon class="fil0 str0" points="8.83,21.43 2.73,2.31 1.21,2.31 7.18,26.02 10.29,26.02 8.83,21.43 "/>
   <path class="fil0 str0" d="M3.35 1.28c0,-0.57 -0.7,-1.04 -1.55,-1.04 -0.86,0 -1.55,0.46 -1.55,1.04 0,0.57 0.7,1.04 1.55,1.04 0.86,0 1.55,-0.46 1.55,-1.04z"/>
   <path class="fil1" d="M34.91 15.96c0,0 -0.3,-4.39 -2.07,-6.34 0,0 -2.99,-2.74 -3.11,-7.31 0,0 -5.55,-0.37 -8.53,0.91 0,0 -3.47,1.04 -6.58,-0.49 0,0 -5.18,-1.81 -11.64,0.34 0,0 7.49,5.65 5.85,18.35l0 0c0,0 6.03,-1.72 9.63,0 0,0 5.06,0.77 7.62,0 0,0 3.47,-2.6 10.42,-0.9 0,0 -1.58,-2.5 -1.58,-4.57z"/>
   <polygon class="fil1" points="8.83,21.43 8.83,21.43 8.83,21.43 "/>
   <path class="fil2" d="M26.46 16.61l-5.59 -5.7 2.93 -5.08c0.07,-0.1 0.09,-0.21 0.07,-0.31 -0.01,-0.07 -0.04,-0.13 -0.12,-0.17 -0.06,-0.04 -0.13,-0.05 -0.21,-0.03l-2.7 0.48c-0.13,0.02 -0.25,0.06 -0.34,0.11 -0.09,0.05 -0.16,0.15 -0.23,0.28l-2.98 5.86 -0.91 -5.14c-0.02,-0.12 -0.07,-0.18 -0.13,-0.22 -0.06,-0.04 -0.15,-0.06 -0.25,-0.04l-2.33 0.41c-0.1,0.02 -0.18,0.07 -0.22,0.13 -0.06,0.06 -0.06,0.15 -0.04,0.25l2 11.33c0.02,0.1 0.05,0.18 0.13,0.22 0.06,0.04 0.15,0.06 0.25,0.04l2.33 -0.41c0.1,-0.02 0.18,-0.07 0.22,-0.13 0.04,-0.06 0.06,-0.15 0.04,-0.25l-0.4 -2.27 1.38 -2.39 3.79 3.95c0.12,0.12 0.28,0.14 0.45,0.11l2.75 -0.49c0.1,-0.02 0.16,-0.05 0.21,-0.09 0.06,-0.06 0.06,-0.13 0.05,-0.2 -0.01,-0.08 -0.07,-0.18 -0.15,-0.27z"/>
   <path class="fil3" d="M50.94 21.19l-3.88 -7.28 3.24 -4.98c0.07,-0.09 0.1,-0.21 0.1,-0.32 0,-0.08 -0.01,-0.15 -0.07,-0.21 -0.04,-0.06 -0.1,-0.08 -0.18,-0.08l-2.36 0c-0.12,0 -0.22,0.02 -0.31,0.06 -0.09,0.04 -0.16,0.13 -0.23,0.26l-3.4 5.81 0 -5.77c0,-0.13 -0.03,-0.21 -0.07,-0.26 -0.04,-0.06 -0.12,-0.09 -0.21,-0.09l-2.04 0c-0.09,0 -0.16,0.04 -0.21,0.09 -0.06,0.06 -0.07,0.15 -0.07,0.26l0 12.72c0,0.11 0.01,0.21 0.07,0.26 0.04,0.06 0.12,0.09 0.21,0.09l2.04 0c0.09,0 0.16,-0.04 0.21,-0.09 0.04,-0.06 0.07,-0.15 0.07,-0.26l0 -2.54 1.52 -2.34 2.62 5.03c0.09,0.15 0.22,0.21 0.37,0.21l2.4 0c0.09,0 0.15,-0.02 0.19,-0.06 0.06,-0.06 0.07,-0.13 0.07,-0.21 0,-0.09 -0.03,-0.21 -0.09,-0.32zm13.07 0.09l-1.16 -12.48c-0.03,-0.32 -0.15,-0.49 -0.37,-0.49l-2.43 0c-0.12,0 -0.22,0.04 -0.28,0.11 -0.07,0.08 -0.12,0.19 -0.15,0.36l-1.82 8.11 -1.8 -8.11c-0.07,-0.32 -0.22,-0.47 -0.44,-0.47l-2.43 0c-0.22,0 -0.34,0.17 -0.37,0.49l-1.16 12.48c-0.01,0.17 0.01,0.28 0.09,0.38 0.07,0.08 0.16,0.11 0.29,0.11l1.89 0c0.12,0 0.21,-0.02 0.26,-0.09 0.06,-0.08 0.1,-0.21 0.12,-0.36l0.6 -7.39 1.58 7.2c0.04,0.19 0.09,0.3 0.15,0.38 0.06,0.06 0.15,0.09 0.26,0.09l1.92 0c0.1,0 0.19,-0.04 0.25,-0.11 0.06,-0.06 0.1,-0.19 0.15,-0.36l1.58 -7.22 0.6 7.41c0.01,0.15 0.06,0.28 0.12,0.36 0.06,0.08 0.15,0.09 0.26,0.09l1.89 0c0.13,0 0.23,-0.04 0.29,-0.11 0.07,-0.09 0.1,-0.21 0.09,-0.38zm0.19 -10.25c0,0.15 0.04,0.28 0.1,0.36 0.07,0.09 0.16,0.15 0.28,0.15l2.2 0 0 9.86c0,0.17 0.03,0.28 0.1,0.38 0.06,0.08 0.15,0.11 0.28,0.11l1.83 0c0.12,0 0.22,-0.04 0.28,-0.11 0.07,-0.09 0.1,-0.21 0.1,-0.38l0 -9.86 2.2 0c0.12,0 0.21,-0.06 0.28,-0.15 0.07,-0.08 0.1,-0.21 0.1,-0.36l0 -2.22c0,-0.15 -0.03,-0.26 -0.1,-0.36 -0.07,-0.08 -0.16,-0.11 -0.28,-0.11l-6.99 0c-0.12,0 -0.21,0.04 -0.28,0.11 -0.06,0.09 -0.1,0.21 -0.1,0.36l0 2.22zm15.18 7.01c-0.22,0.21 -0.48,0.38 -0.78,0.53 -0.31,0.13 -0.59,0.19 -0.84,0.19 -0.53,0 -1.01,-0.15 -1.47,-0.49 -0.44,-0.32 -0.79,-0.77 -1.05,-1.34 -0.26,-0.57 -0.38,-1.19 -0.38,-1.85 0,-0.7 0.12,-1.32 0.38,-1.88 0.26,-0.57 0.62,-1.02 1.05,-1.34 0.45,-0.34 0.94,-0.51 1.47,-0.51 0.26,0 0.54,0.08 0.84,0.21 0.31,0.15 0.59,0.34 0.82,0.57 0.09,0.08 0.18,0.11 0.28,0.11 0.12,0 0.19,-0.06 0.25,-0.15l1.08 -2.05c0.04,-0.06 0.06,-0.13 0.06,-0.21 0,-0.15 -0.06,-0.28 -0.18,-0.4 -0.41,-0.4 -0.92,-0.72 -1.52,-0.98 -0.59,-0.25 -1.13,-0.38 -1.63,-0.38 -1.01,0 -1.93,0.3 -2.77,0.92 -0.84,0.62 -1.51,1.47 -1.99,2.54 -0.48,1.07 -0.73,2.24 -0.73,3.54 0,1.28 0.25,2.45 0.73,3.52 0.48,1.07 1.16,1.9 1.99,2.53 0.84,0.62 1.76,0.94 2.77,0.94 0.51,0 1.05,-0.13 1.64,-0.38 0.59,-0.25 1.07,-0.57 1.47,-0.94 0.06,-0.06 0.12,-0.13 0.15,-0.21 0.04,-0.08 0.06,-0.15 0.06,-0.23 0,-0.06 -0.01,-0.11 -0.04,-0.17l-1.05 -2.07c-0.06,-0.11 -0.15,-0.17 -0.28,-0.17 -0.1,0 -0.21,0.04 -0.32,0.13z"/>
   <path class="fil0 str1" d="M50.93 21.18l-3.88 -7.28 3.24 -4.98c0.07,-0.09 0.1,-0.21 0.1,-0.32 0,-0.08 -0.01,-0.15 -0.07,-0.21 -0.04,-0.06 -0.1,-0.08 -0.18,-0.08l-2.36 0c-0.12,0 -0.22,0.02 -0.31,0.06 -0.09,0.04 -0.16,0.13 -0.23,0.26l-3.4 5.81 0 -5.77c0,-0.13 -0.03,-0.21 -0.07,-0.26 -0.04,-0.06 -0.12,-0.09 -0.21,-0.09l-2.04 0c-0.09,0 -0.16,0.04 -0.2,0.09 -0.06,0.06 -0.07,0.15 -0.07,0.26l0 12.72c0,0.11 0.01,0.21 0.07,0.26 0.04,0.06 0.12,0.09 0.2,0.09l2.04 0c0.09,0 0.16,-0.04 0.21,-0.09 0.04,-0.06 0.07,-0.15 0.07,-0.26l0 -2.54 1.52 -2.34 2.62 5.03c0.09,0.15 0.22,0.21 0.37,0.21l2.4 0c0.09,0 0.15,-0.02 0.19,-0.06 0.06,-0.06 0.07,-0.13 0.07,-0.21 0,-0.09 -0.03,-0.21 -0.09,-0.32zm13.08 0.09l-1.16 -12.48c-0.03,-0.32 -0.15,-0.49 -0.37,-0.49l-2.43 0c-0.12,0 -0.22,0.04 -0.28,0.11 -0.07,0.08 -0.12,0.19 -0.15,0.36l-1.82 8.11 -1.8 -8.11c-0.07,-0.32 -0.22,-0.47 -0.44,-0.47l-2.43 0c-0.22,0 -0.34,0.17 -0.37,0.49l-1.16 12.48c-0.01,0.17 0.01,0.28 0.09,0.38 0.07,0.08 0.16,0.11 0.29,0.11l1.89 0c0.12,0 0.21,-0.02 0.26,-0.09 0.06,-0.08 0.1,-0.21 0.12,-0.36l0.6 -7.39 1.58 7.2c0.04,0.19 0.09,0.3 0.15,0.38 0.06,0.06 0.15,0.09 0.26,0.09l1.92 0c0.1,0 0.19,-0.04 0.25,-0.11 0.06,-0.06 0.1,-0.19 0.15,-0.36l1.58 -7.22 0.6 7.41c0.01,0.15 0.06,0.28 0.12,0.36 0.06,0.08 0.15,0.09 0.26,0.09l1.89 0c0.13,0 0.23,-0.04 0.29,-0.11 0.07,-0.09 0.1,-0.21 0.09,-0.38zm0.19 -10.25c0,0.15 0.04,0.28 0.1,0.36 0.07,0.09 0.16,0.15 0.28,0.15l2.2 0 0 9.86c0,0.17 0.03,0.28 0.1,0.38 0.06,0.08 0.15,0.11 0.28,0.11l1.83 0c0.12,0 0.22,-0.04 0.28,-0.11 0.07,-0.09 0.1,-0.21 0.1,-0.38l0 -9.86 2.2 0c0.12,0 0.21,-0.06 0.28,-0.15 0.07,-0.08 0.1,-0.21 0.1,-0.36l0 -2.22c0,-0.15 -0.03,-0.26 -0.1,-0.36 -0.07,-0.08 -0.16,-0.11 -0.28,-0.11l-6.99 0c-0.12,0 -0.2,0.04 -0.28,0.11 -0.06,0.09 -0.1,0.21 -0.1,0.36l0 2.22zm15.18 7.01c-0.22,0.21 -0.48,0.38 -0.78,0.53 -0.31,0.13 -0.59,0.19 -0.84,0.19 -0.53,0 -1.01,-0.15 -1.47,-0.49 -0.44,-0.32 -0.79,-0.77 -1.05,-1.34 -0.26,-0.57 -0.38,-1.19 -0.38,-1.85 0,-0.7 0.12,-1.32 0.38,-1.88 0.26,-0.57 0.62,-1.02 1.05,-1.34 0.45,-0.34 0.94,-0.51 1.47,-0.51 0.26,0 0.54,0.08 0.84,0.21 0.31,0.15 0.59,0.34 0.82,0.57 0.09,0.08 0.18,0.11 0.28,0.11 0.12,0 0.19,-0.06 0.25,-0.15l1.08 -2.05c0.04,-0.06 0.06,-0.13 0.06,-0.21 0,-0.15 -0.06,-0.28 -0.18,-0.4 -0.41,-0.4 -0.92,-0.72 -1.52,-0.98 -0.59,-0.25 -1.13,-0.38 -1.63,-0.38 -1.01,0 -1.93,0.3 -2.77,0.92 -0.83,0.62 -1.51,1.47 -1.99,2.54 -0.48,1.07 -0.73,2.24 -0.73,3.54 0,1.28 0.25,2.45 0.73,3.52 0.48,1.07 1.16,1.9 1.99,2.53 0.84,0.62 1.76,0.94 2.77,0.94 0.51,0 1.05,-0.13 1.64,-0.38 0.59,-0.24 1.07,-0.57 1.47,-0.94 0.06,-0.06 0.12,-0.13 0.15,-0.21 0.04,-0.08 0.06,-0.15 0.06,-0.23 0,-0.06 -0.01,-0.11 -0.04,-0.17l-1.06 -2.07c-0.06,-0.11 -0.15,-0.17 -0.28,-0.17 -0.1,0 -0.21,0.04 -0.32,0.13zm2.12 3.74"/>
   <path class="fil3" d="M88.52 20.21l-2.59 0 0 -4.89c0,-0.07 -0.02,-0.1 -0.05,-0.13 -0.04,-0.04 -0.07,-0.05 -0.13,-0.05l-1.29 0c-0.06,0 -0.1,0.01 -0.13,0.05 -0.04,0.03 -0.05,0.07 -0.05,0.13l0 6.28c0,0.06 0.01,0.1 0.05,0.13 0.03,0.03 0.07,0.05 0.13,0.05l4.06 0c0.06,0 0.1,-0.02 0.13,-0.05 0.04,-0.03 0.05,-0.07 0.05,-0.13l0 -1.21c0,-0.06 -0.01,-0.1 -0.05,-0.13 -0.03,-0.03 -0.07,-0.05 -0.13,-0.05zm2.67 -4.89c0,-0.12 -0.06,-0.18 -0.17,-0.18l-1.29 0c-0.12,0 -0.18,0.06 -0.18,0.18l0 6.28c0,0.06 0.01,0.1 0.04,0.13 0.04,0.03 0.07,0.05 0.14,0.05l1.29 0c0.11,0 0.17,-0.06 0.17,-0.18l0 -6.28zm6.89 -0.18l-1.29 0c-0.06,0 -0.09,0.01 -0.13,0.05 -0.03,0.03 -0.05,0.07 -0.05,0.13l0 3.68 -2.46 -3.65c-0.09,-0.15 -0.2,-0.21 -0.33,-0.21l-1.34 0c-0.06,0 -0.1,0.01 -0.13,0.05 -0.04,0.03 -0.05,0.07 -0.05,0.13l0 6.28c0,0.07 0.01,0.1 0.05,0.14 0.03,0.03 0.07,0.04 0.13,0.04l1.29 0c0.06,0 0.09,-0.01 0.13,-0.04 0.03,-0.04 0.05,-0.07 0.05,-0.14l0 -3.91 2.55 3.89c0.09,0.13 0.2,0.2 0.34,0.2l1.24 0c0.06,0 0.1,-0.01 0.13,-0.04 0.03,-0.04 0.05,-0.07 0.05,-0.14l0 -6.28c0,-0.07 -0.01,-0.1 -0.05,-0.13 -0.03,-0.04 -0.07,-0.05 -0.13,-0.05zm1.29 6.4c0,0.07 0.02,0.13 0.06,0.17 0.05,0.05 0.1,0.07 0.18,0.07l4.36 0c0.07,0 0.14,-0.02 0.18,-0.07 0.05,-0.04 0.07,-0.1 0.07,-0.17l0 -0.99c0,-0.09 -0.04,-0.17 -0.09,-0.22 -0.06,-0.06 -0.14,-0.08 -0.24,-0.08l-2.88 0 0 -1.13 2.19 0c0.08,0 0.15,-0.02 0.2,-0.06 0.05,-0.05 0.07,-0.1 0.07,-0.19l0 -0.86c0,-0.08 -0.03,-0.14 -0.07,-0.19 -0.05,-0.05 -0.11,-0.07 -0.2,-0.07l-2.19 0 0 -1.1 2.88 0c0.07,0 0.14,-0.03 0.18,-0.07 0.05,-0.05 0.07,-0.1 0.07,-0.18l0 -1.05c0,-0.07 -0.02,-0.13 -0.07,-0.18 -0.05,-0.04 -0.1,-0.06 -0.18,-0.06l-4.28 0c-0.07,0 -0.13,0.02 -0.18,0.06 -0.04,0.05 -0.06,0.1 -0.06,0.18l0 6.17z"/>
  </g>
 </g>
</svg>
