<?xml version="1.0" encoding="UTF-8"?>
<!DOCTYPE svg PUBLIC "-//W3C//DTD SVG 1.1//EN" "http://www.w3.org/Graphics/SVG/1.1/DTD/svg11.dtd">
<!-- Creator: CorelDRAW 2020 (64-Bit) -->
<svg xmlns="http://www.w3.org/2000/svg" xml:space="preserve" width="62.5342mm" height="17.8598mm" version="1.1" style="shape-rendering:geometricPrecision; text-rendering:geometricPrecision; image-rendering:optimizeQuality; fill-rule:evenodd; clip-rule:evenodd"
viewBox="0 0 1362.39 389.1"
 xmlns:xlink="http://www.w3.org/1999/xlink"
 xmlns:xodm="http://www.corel.com/coreldraw/odm/2003">
 <defs>
  <style type="text/css">
   <![CDATA[
    .fil0 {fill:#D33B46}
   ]]>
  </style>
 </defs>
 <g id="Layer_x0020_1">
  <metadata id="CorelCorpID_0Corel-Layer"/>
  <g id="_2762253623056">
   <path class="fil0" d="M1362.39 378.01l-0.57 -126.92 -161.29 0 0 -246.93 -126.37 0 0 111.08c-30.58,-66.02 -97.16,-111.91 -174.73,-111.91 -0.76,0 -1.48,0.11 -2.24,0.12 -0.87,-0.02 -1.74,-0.12 -2.62,-0.12 -75.3,0 -140.35,43.25 -172.12,106.19 -31.14,-64.73 -97.11,-109.52 -173.73,-109.52 -80.77,0 -149.86,49.7 -178.58,120.15 -29.53,-68.69 -97.76,-116.82 -177.26,-116.82 -106.53,0 -192.89,86.35 -192.89,192.89 0,106.53 86.35,192.88 192.89,192.88 80.77,0 149.85,-49.71 178.58,-120.15 29.52,68.7 97.75,116.83 177.26,116.83 75.3,0 140.36,-43.26 172.12,-106.18 31.13,64.72 97.1,109.5 173.73,109.5 0.87,0 1.71,-0.11 2.57,-0.12 0.78,0.01 1.51,0.12 2.28,0.12 77.45,0 144.08,-45.67 174.73,-111.54l0 99.89 288.23 0.55 0 0zm-1167.84 -116.94c-36.73,0 -66.51,-29.79 -66.51,-66.51 0,-36.74 29.78,-66.52 66.51,-66.52 36.73,0 66.52,29.77 66.52,66.52 0,36.72 -29.78,66.51 -66.52,66.51l0 0zm430.75 -42.84c3.12,4.22 5.63,9 7.33,14.28 8.58,26.33 -5.86,54.61 -32.18,63.15 -21.3,6.92 -43.88,-1.18 -56.26,-18.47 -3.06,4.26 -6.83,8.15 -11.3,11.4 -22.4,16.27 -53.76,11.31 -70.05,-11.09 -13.16,-18.11 -12.43,-42.1 0.19,-59.2 -5,-1.59 -9.85,-3.97 -14.34,-7.22 -22.38,-16.28 -27.35,-47.63 -11.08,-70.04 13.16,-18.1 36.2,-24.8 56.39,-18.1 -0.04,-5.26 0.73,-10.59 2.45,-15.86 8.55,-26.35 36.84,-40.73 63.17,-32.19 21.31,6.91 34.81,26.74 34.66,48 4.98,-1.66 10.31,-2.56 15.86,-2.56 27.69,0 50.14,22.43 50.14,50.12 0,22.4 -14.71,41.35 -34.97,47.78l0 0zm327.33 11.25c-11.24,18.11 -30.83,30.4 -53.45,31.4 -35.79,-1.05 -64.59,-30.26 -64.59,-66.32 0,-36.16 28.89,-65.42 64.82,-66.35 18.07,0.87 34.15,8.98 45.62,21.44l129.14 0 0 79.82 -121.53 0z"/>
   <path class="fil0" d="M617.4 158.26c-4.16,1.35 -6.71,5.35 -6.4,9.52l-45.7 14.82c-0.67,-1.49 -1.51,-2.9 -2.47,-4.22l15.79 -14.22c1.66,0.85 3.63,1.09 5.57,0.47 3.77,-1.22 5.85,-5.3 4.61,-9.08 -1.23,-3.78 -5.3,-5.86 -9.09,-4.62 -3.78,1.24 -5.85,5.3 -4.61,9.08 0.07,0.25 0.17,0.49 0.27,0.73l-15.72 14.14c-1.2,-1.09 -2.53,-2.05 -3.95,-2.86l8.66 -19.45c1.87,0.1 3.76,-0.49 5.25,-1.85 2.97,-2.64 3.2,-7.21 0.55,-10.17 -2.68,-2.97 -7.23,-3.2 -10.19,-0.53 -2.95,2.67 -3.2,7.21 -0.53,10.19 0.17,0.18 0.35,0.36 0.56,0.54l-8.63 19.33c-1.53,-0.49 -3.11,-0.85 -4.76,-1.02l0 -48.22c3.96,-1.08 6.88,-4.68 6.88,-8.98 0,-5.16 -4.18,-9.32 -9.34,-9.32 -5.14,0 -9.33,4.17 -9.33,9.32 0,4.37 3.01,8.02 7.07,9.05l0 48.14c-1.64,0.15 -3.23,0.49 -4.76,0.98l-8.66 -19.46c1.33,-1.3 2.16,-3.12 2.16,-5.14 0,-3.99 -3.24,-7.21 -7.21,-7.21 -3.98,0 -7.21,3.22 -7.21,7.21 0,3.98 3.23,7.22 7.21,7.22 0.27,0 0.52,-0.02 0.78,-0.04l8.6 19.31c-1.42,0.8 -2.75,1.78 -3.97,2.85l-15.81 -14.24c0.68,-1.75 0.69,-3.73 -0.13,-5.57 -1.61,-3.64 -5.87,-5.26 -9.5,-3.65 -3.64,1.62 -5.29,5.87 -3.66,9.51 1.62,3.64 5.88,5.27 9.52,3.66 0.24,-0.12 0.47,-0.23 0.69,-0.36l15.69 14.13c-0.98,1.3 -1.83,2.72 -2.51,4.21l-45.76 -14.87c0.19,-4.09 -2.33,-7.97 -6.44,-9.3 -4.9,-1.6 -10.16,1.09 -11.75,5.98 -1.59,4.92 1.09,10.16 5.99,11.76 4.15,1.36 8.57,-0.37 10.79,-3.92l45.64 14.83c-0.35,1.59 -0.57,3.24 -0.58,4.93l-20.99 2.2c-0.83,-1.66 -2.3,-3.02 -4.22,-3.64 -3.79,-1.22 -7.85,0.85 -9.08,4.64 -1.23,3.78 0.83,7.85 4.62,9.06 3.78,1.23 7.85,-0.83 9.08,-4.62 0.08,-0.25 0.14,-0.5 0.21,-0.76l20.81 -2.18c0.31,1.65 0.81,3.25 1.46,4.76l-18.18 10.5c-1.45,-1.18 -3.34,-1.81 -5.33,-1.61 -3.97,0.43 -6.84,3.98 -6.43,7.93 0.43,3.95 3.97,6.83 7.91,6.42 3.98,-0.42 6.85,-3.97 6.42,-7.93 -0.02,-0.26 -0.06,-0.51 -0.12,-0.78l18.05 -10.4c0.96,1.36 2.08,2.63 3.32,3.74l-28.13 38.73c-3.85,-1.46 -8.32,-0.25 -10.84,3.23 -3.03,4.16 -2.12,10 2.07,13.03 4.16,3.04 10,2.11 13.03,-2.08 2.57,-3.54 2.28,-8.26 -0.41,-11.47l28.08 -38.62c1.44,0.86 2.98,1.58 4.59,2.09l-4.34 20.42c-1.85,0.29 -3.58,1.27 -4.77,2.9 -2.34,3.24 -1.63,7.73 1.59,10.07 3.22,2.34 7.74,1.63 10.07,-1.6 2.34,-3.22 1.63,-7.73 -1.59,-10.05 -0.22,-0.16 -0.42,-0.3 -0.66,-0.43l4.3 -20.29c0.87,0.09 1.75,0.16 2.63,0.16 0.83,0 1.63,-0.04 2.43,-0.12l4.34 20.4c-1.57,1 -2.76,2.6 -3.18,4.58 -0.83,3.9 1.66,7.72 5.56,8.53 3.89,0.84 7.72,-1.65 8.54,-5.53 0.83,-3.9 -1.65,-7.72 -5.56,-8.56 -0.25,-0.05 -0.51,-0.1 -0.76,-0.1l-4.32 -20.29c1.63,-0.52 3.17,-1.22 4.6,-2.08l28.11 38.69c-2.56,3.2 -2.79,7.83 -0.26,11.3 3.02,4.18 8.87,5.11 13.03,2.08 4.18,-3.03 5.11,-8.87 2.07,-13.03 -2.57,-3.54 -7.15,-4.73 -11.04,-3.15l-28.08 -38.66c1.25,-1.11 2.37,-2.37 3.34,-3.73l18.19 10.48c-0.31,1.83 0.08,3.8 1.27,5.42 2.35,3.22 6.85,3.94 10.07,1.6 3.22,-2.34 3.93,-6.84 1.6,-10.07 -2.34,-3.22 -6.86,-3.93 -10.07,-1.59 -0.22,0.14 -0.42,0.32 -0.61,0.49l-18.09 -10.44c0.67,-1.51 1.2,-3.08 1.54,-4.74l20.94 2.19c0.46,1.8 1.63,3.42 3.37,4.44 3.44,1.97 7.85,0.8 9.84,-2.66 2,-3.43 0.8,-7.85 -2.64,-9.83 -3.45,-1.98 -7.85,-0.81 -9.83,2.63 -0.13,0.22 -0.26,0.46 -0.35,0.71l-20.86 -2.21c0,-1.68 -0.2,-3.33 -0.55,-4.91l45.71 -14.83c2.25,3.41 6.58,5.07 10.68,3.73 4.9,-1.58 7.57,-6.84 5.99,-11.75 -1.59,-4.9 -6.86,-7.59 -11.76,-5.99z"/>
  </g>
 </g>
</svg>
