<?xml version="1.0" encoding="UTF-8"?>
<!DOCTYPE svg PUBLIC "-//W3C//DTD SVG 1.1//EN" "http://www.w3.org/Graphics/SVG/1.1/DTD/svg11.dtd">
<!-- Creator: CorelDRAW 2020 (64-Bit) -->
<svg xmlns="http://www.w3.org/2000/svg" xml:space="preserve" width="170.392mm" height="32.7176mm" version="1.1" style="shape-rendering:geometricPrecision; text-rendering:geometricPrecision; image-rendering:optimizeQuality; fill-rule:evenodd; clip-rule:evenodd"
viewBox="0 0 1805.43 346.67"
 xmlns:xlink="http://www.w3.org/1999/xlink"
 xmlns:xodm="http://www.corel.com/coreldraw/odm/2003">
 <defs>
  <style type="text/css">
   <![CDATA[
    .fil0 {fill:#0189CD}
   ]]>
  </style>
 </defs>
 <g id="Layer_x0020_1">
  <metadata id="CorelCorpID_0Corel-Layer"/>
  <g id="_2762089479488">
   <path class="fil0" d="M190.64 118.56c0,79.87 58.86,74.76 115.88,74.76 42.68,-0 156.99,-10.32 156.99,22.43 0,20.17 -4.61,31.11 -27.49,39.79 -37.73,14.31 -120.97,8.8 -166.88,8.8 -78.5,0 -156.99,0 -235.49,0 -6.45,27.7 -27.68,56.64 -33.64,82.23 112.14,0 224.28,0 336.42,0 64.61,0 104.43,2.77 146.59,-21.62 90.14,-52.16 92.94,-132.04 37.82,-159.05 -57.92,-28.38 -236.74,13.16 -236.74,-28.66 0,-61.27 76.24,-48.59 149.52,-48.59 64.79,0 129.58,0 194.37,0l20.27 -47.02c6.02,-14.54 26.38,-38.96 5.9,-38.96l-287.82 0c-47.91,0 -84.83,11.49 -114.45,31.33 -23.9,16 -61.23,47.73 -61.23,84.55z"/>
   <path class="fil0" d="M1237.26 219.48l0 26.17c0,59.7 72.26,100.92 134.57,100.92l220.54 0c13.6,0 13.65,-16.2 24.94,-38.61 7.86,-15.6 12.28,-29.19 19.92,-43.63 -60.25,0 -135.93,4.09 -194.28,-0.1 -76.04,-5.46 -33.44,-57.76 -8.67,-116.88 10.21,-24.36 23.93,-38.87 47.07,-50.12 32.68,-15.88 241.52,-8.59 286.71,-8.59l37.38 -85.97c-168.36,0 -375.31,-27.32 -494.4,92.46 -28.97,29.14 -73.77,77.62 -73.77,124.34z"/>
   <path class="fil0" d="M863.47 88.65l119.61 0 -43.57 94.74c-6.39,13.2 -9.16,19.41 -15.16,33.43 -9.3,21.75 -19.67,42.05 -29.75,63.7l-27.4 66.05 171.94 0 115.88 -257.92 138.3 0c4.51,-19.36 9.69,-25.71 17.46,-42.35 5.1,-10.92 15.24,-32.29 16.18,-43.62l-426.13 0 -37.38 85.97z"/>
   <path class="fil0" d="M542 346.57l171.95 0c30.09,-56.86 101.09,-225.94 135.85,-297.75 5.19,-10.72 16.46,-34.8 17.4,-46.14l-168.21 0c-45.78,86.52 -99.59,222.38 -147.07,320.17 -4.49,9.24 -6.09,15.73 -9.93,23.72z"/>
  </g>
 </g>
</svg>
